<svg width="40" height="40" viewBox="0 0 40 40" fill="none" xmlns="http://www.w3.org/2000/svg">
<g id="&#240;&#159;&#166;&#134; icon &#34;Linkedin&#34;">
<path id="Vector" d="M20 40C31.0457 40 40 31.0457 40 20C40 8.9543 31.0457 0 20 0C8.9543 0 0 8.9543 0 20C0 31.0457 8.9543 40 20 40Z" fill="#0A66C2"/>
<path id="Vector_2" d="M27.0742 27.0781H24.1055V22.4297C24.1055 21.3203 24.082 19.8945 22.5586 19.8945C21.0117 19.8945 20.7734 21.1016 20.7734 22.3477V27.0781H17.8047V17.5156H20.6563V18.8203H20.6953C21.0938 18.0703 22.0625 17.2773 23.5078 17.2773C26.5156 17.2773 27.0703 19.2578 27.0703 21.832L27.0742 27.0781ZM14.457 16.207C13.5 16.207 12.7344 15.4336 12.7344 14.4844C12.7344 13.5352 13.5039 12.7617 14.457 12.7617C15.4102 12.7617 16.1797 13.5352 16.1797 14.4844C16.1797 15.4336 15.4063 16.207 14.457 16.207ZM15.9453 27.0781H12.9688V17.5156H15.9453V27.0781ZM28.5586 10H11.4805C10.6641 10 10 10.6445 10 11.4453V28.5938C10 29.3906 10.6602 30.0391 11.4805 30.0391H28.5547C29.3711 30.0391 30.0391 29.3945 30.0391 28.5938V11.4453C30.0391 10.6445 29.3711 10 28.5586 10Z" fill="white"/>
</g>
</svg>
