<svg width="40" height="40" viewBox="0 0 40 40" fill="none" xmlns="http://www.w3.org/2000/svg">
<g id="&#240;&#159;&#166;&#134; icon &#34;Github&#34;">
<path id="Vector" d="M20 40C31.0457 40 40 31.0457 40 20C40 8.9543 31.0457 0 20 0C8.9543 0 0 8.9543 0 20C0 31.0457 8.9543 40 20 40Z" fill="#181717"/>
<path id="Vector_2" d="M19.9961 10.2422C14.4687 10.2422 9.99219 14.7227 9.99219 20.2461C9.99219 24.668 12.8594 28.418 16.832 29.7383C17.332 29.832 17.5156 29.5234 17.5156 29.2578C17.5156 29.0195 17.5078 28.3906 17.5039 27.5586C14.7227 28.1641 14.1328 26.2148 14.1328 26.2148C13.6758 25.0586 13.0195 24.75 13.0195 24.75C12.1133 24.1289 13.0898 24.1406 13.0898 24.1406C14.0938 24.2109 14.6211 25.1719 14.6211 25.1719C15.5117 26.7031 16.9648 26.2617 17.5352 26.0039C17.625 25.3555 17.8828 24.9141 18.168 24.6641C15.9453 24.4141 13.6094 23.5547 13.6094 19.7187C13.6094 18.625 13.9961 17.7344 14.6406 17.0352C14.5273 16.7812 14.1914 15.7656 14.7266 14.3867C14.7266 14.3867 15.5664 14.1172 17.4766 15.4141C18.2773 15.1914 19.1289 15.082 19.9766 15.0781C20.8281 15.082 21.6758 15.1914 22.4766 15.4141C24.3789 14.1211 25.2148 14.3867 25.2148 14.3867C25.7539 15.7656 25.4141 16.7812 25.3164 17.0352C25.9531 17.7344 26.3438 18.6289 26.3438 19.7187C26.3438 23.5625 24.0039 24.4102 21.7773 24.6562C22.1289 24.957 22.4531 25.5703 22.4531 26.5078C22.4531 27.8477 22.4414 28.9219 22.4414 29.2461C22.4414 29.5078 22.6172 29.8203 23.1289 29.7227C27.1367 28.4141 30 24.6641 30 20.2461C30 14.7227 25.5195 10.2422 19.9961 10.2422Z" fill="white"/>
</g>
</svg>
