<svg width="40" height="40" viewBox="0 0 40 40" fill="none" xmlns="http://www.w3.org/2000/svg">
<g id="&#240;&#159;&#166;&#134; icon &#34;Mastodon&#34;" opacity="0.4">
<path id="Vector" d="M20 40C31.0457 40 40 31.0457 40 20C40 8.9543 31.0457 0 20 0C8.9543 0 0 8.9543 0 20C0 31.0457 8.9543 40 20 40Z" fill="#2B90D9"/>
<path id="Vector_2" d="M29.3242 17.5039C29.3242 13.168 26.4805 11.8945 26.4805 11.8945C25.0469 11.2344 22.5859 10.9609 20.0312 10.9375H19.9687C17.414 10.957 14.9531 11.2344 13.5195 11.8945C13.5195 11.8945 10.6758 13.1641 10.6758 17.5039C10.6758 18.4961 10.6562 19.6836 10.6875 20.9453C10.789 25.1875 11.4648 29.3672 15.3867 30.4062C17.1953 30.8828 18.7461 30.9844 20 30.918C22.2695 30.793 23.543 30.1094 23.543 30.1094L23.4687 28.4648C23.4687 28.4648 21.8476 28.9766 20.0273 28.9141C18.2226 28.8516 16.3203 28.7188 16.0273 26.5039C16 26.2969 15.9883 26.0898 15.9883 25.8828C15.9883 25.8828 17.7578 26.3164 20 26.418C21.3711 26.4805 22.6562 26.3359 23.9648 26.1836C26.4687 25.8828 28.6523 24.3398 28.9258 22.9297C29.3594 20.707 29.3242 17.5039 29.3242 17.5039ZM25.9726 23.0938H23.8906V17.9961C23.8906 16.9219 23.4375 16.375 22.5351 16.375C21.5351 16.375 21.0351 17.0234 21.0351 18.3008V21.0938H18.9648V18.3008C18.9648 17.0195 18.4648 16.375 17.4648 16.375C16.5625 16.375 16.1094 16.9219 16.1094 17.9961V23.0938H14.0273V17.8437C14.0273 16.7695 14.3008 15.918 14.8515 15.2852C15.418 14.6523 16.1601 14.332 17.0781 14.332C18.1445 14.332 18.9492 14.7422 19.4844 15.5586L20 16.4258L20.5195 15.5586C21.0547 14.7383 21.8594 14.332 22.9258 14.332C23.8437 14.332 24.5859 14.6562 25.1523 15.2852C25.6992 15.9141 25.9726 16.7695 25.9726 17.8437V23.0938Z" fill="white"/>
</g>
</svg>
