<?xml version="1.0" encoding="UTF-8" standalone="no"?>
<svg
   version="1.1"
   x="0px"
   y="0px"
   viewBox="0 0 100 101"
   enable-background="new 0 0 100 100"
   xml:space="preserve"
   id="svg450"
   sodipodi:docname="noun-magpie-1183890.svg"
   width="100"
   height="101"
   inkscape:version="1.2.2 (b0a84865, 2022-12-01)"
   xmlns:inkscape="http://www.inkscape.org/namespaces/inkscape"
   xmlns:sodipodi="http://sodipodi.sourceforge.net/DTD/sodipodi-0.dtd"
   xmlns="http://www.w3.org/2000/svg"
   xmlns:svg="http://www.w3.org/2000/svg"><defs
     id="defs454"><clipPath
       clipPathUnits="userSpaceOnUse"
       id="clipPath458"><rect
         style="opacity:0.54;fill:#000000;stroke-width:1.00267"
         id="rect460"
         width="99.576271"
         height="103.81356"
         x="0.529661"
         y="-0.52966094" /></clipPath><clipPath
       clipPathUnits="userSpaceOnUse"
       id="clipPath462"><rect
         style="opacity:0.54;fill:#000000;stroke-width:1.00267"
         id="rect464"
         width="99.576271"
         height="103.81356"
         x="0.529661"
         y="-0.52966094" /></clipPath><clipPath
       clipPathUnits="userSpaceOnUse"
       id="clipPath466"><rect
         style="opacity:0.54;fill:#000000;stroke-width:1.00267"
         id="rect468"
         width="99.576271"
         height="103.81356"
         x="0.529661"
         y="-0.52966094" /></clipPath></defs><sodipodi:namedview
     id="namedview452"
     pagecolor="#ffffff"
     bordercolor="#000000"
     borderopacity="0.25"
     inkscape:showpageshadow="2"
     inkscape:pageopacity="0.0"
     inkscape:pagecheckerboard="0"
     inkscape:deskcolor="#d1d1d1"
     showgrid="false"
     inkscape:zoom="1.888"
     inkscape:cx="50.052966"
     inkscape:cy="54.555085"
     inkscape:window-width="1309"
     inkscape:window-height="456"
     inkscape:window-x="1804"
     inkscape:window-y="192"
     inkscape:window-maximized="0"
     inkscape:current-layer="svg450" /><g
     id="g444"
     clip-path="url(#clipPath466)"><path
       d="m 19.869,25.39 2.244,-1.445 -1.77,-1.59 c -0.005,0.01 -0.014,0.029 -0.014,0.029 -3.621,-0.085 -5.172,2.5 -5.172,2.5 l 4.569,0.431 c 0.049,0.017 0.095,0.052 0.143,0.075 z"
       id="path438" /><path
       d="m 26.885,24.321 c -1.334,1.276 -2.829,0.351 -3.384,-0.081 l -2.787,1.795 c 1.849,1.987 2.804,6.864 2.804,6.864 0.113,1.771 0.224,3.208 0.329,4.398 h -0.001 c 0,0 -0.002,0.06 -0.004,0.163 0.087,0.167 0.185,0.328 0.301,0.472 0.971,1.198 2.786,1.871 5.547,2.058 1.609,0.111 3.103,-0.232 4.684,-0.593 1.169,-0.267 2.378,-0.542 3.636,-0.619 1.54,-0.097 3.181,0.099 4.877,0.572 l 0.273,0.076 c 0.605,0.168 1.326,0.368 2.061,0.604 l -9.979,-9.114 c -1.466,-6.982 -5.431,-9.31 -5.431,-9.31 -5.215,-2.98 -7.828,-1.268 -8.886,-0.075 l 2.676,2.405 c 1.962,-0.699 3.284,0.385 3.284,0.385 z"
       id="path440" /><path
       d="M 90.154,73.416 C 87.826,73.934 61.276,56.777 61.276,56.777 64.464,58.502 62.051,55.743 62.051,55.743 58.475,50.013 49.938,44.338 49.932,44.334 l -2.618,-2.391 c -1.262,-0.67 -3.118,-1.19 -4.421,-1.552 l -0.275,-0.077 c -1.588,-0.443 -3.117,-0.624 -4.547,-0.537 -1.176,0.072 -2.345,0.338 -3.475,0.596 -1.582,0.36 -3.215,0.735 -4.973,0.616 -2.622,-0.178 -4.496,-0.791 -5.707,-1.862 0.298,3.271 1.731,10.236 8.39,15.053 2.263,1.898 4.138,2.646 4.764,2.862 -0.2,-2.07 1.129,-4.246 1.129,-4.246 -0.718,2.086 -0.875,3.521 -0.87,4.42 l 0.585,3.01 -4.387,6.01 c -0.187,-0.051 -0.372,-0.104 -0.559,-0.152 -3.95,-1.019 -8.16,-1.896 -12.085,-0.265 -3.802,1.579 -6.876,3.905 -11.088,4.42 -1.325,0.161 -0.856,2.178 0.456,2.017 3.707,-0.451 6.371,-2.133 9.655,-3.731 1.472,-0.716 2.946,-1.12 4.422,-1.304 -2.56,5.242 -3.385,11.86 -10.299,12.654 -1.326,0.152 -0.856,2.169 0.456,2.018 7.969,-0.915 8.747,-8.209 11.89,-14.166 0.113,-0.214 0.127,-0.423 0.103,-0.62 3.073,0.048 6.155,0.931 9.245,2.003 4.469,1.552 8.964,3.455 13.681,4.112 4.293,0.598 8.521,-1.188 12.216,1.598 1.067,0.805 2.163,-0.952 1.105,-1.749 -3.892,-2.934 -5.771,-1.332 -10.127,-1.585 -5.177,-0.3 -9.853,-2.2 -14.639,-3.856 l 6.722,-8.352 -1.508,-2.672 7.327,-0.604 c 1.12,1.206 6.638,2.155 6.638,2.155 20.43,14.914 27.068,14.483 27.068,14.483 l 5.948,2.413 c 4.138,1.12 0,-1.637 0,-1.637 z M 36.443,67.117 c -0.48,-0.158 -0.963,-0.311 -1.448,-0.458 l 4.902,-5.57 c 1.465,-0.862 -0.085,-3.018 -0.085,-3.018 l 1.465,-0.431 0.862,1.896 z M 47.267,48.804 c 4.009,3.879 12.931,7.241 12.931,7.241 -8.405,-2.068 -12.931,-7.241 -12.931,-7.241 z"
       id="path442" /></g><text
     x="0"
     y="115"
     fill="#000000"
     font-size="5px"
     font-weight="bold"
     font-family="'Helvetica Neue', Helvetica, Arial-Unicode, Arial, Sans-serif"
     id="text446"
     clip-path="url(#clipPath462)">Created by Brand Mania</text><text
     x="0"
     y="120"
     fill="#000000"
     font-size="5px"
     font-weight="bold"
     font-family="'Helvetica Neue', Helvetica, Arial-Unicode, Arial, Sans-serif"
     id="text448"
     clip-path="url(#clipPath458)">from the Noun Project</text></svg>
