<?xml version="1.0" encoding="UTF-8" standalone="no"?>
<svg
   version="1.1"
   x="0px"
   y="0px"
   viewBox="0 0 64 65"
   xml:space="preserve"
   id="svg44"
   sodipodi:docname="noun-hummingbird-4218394.svg"
   width="64"
   height="65"
   inkscape:version="1.2.2 (b0a84865, 2022-12-01)"
   xmlns:inkscape="http://www.inkscape.org/namespaces/inkscape"
   xmlns:sodipodi="http://sodipodi.sourceforge.net/DTD/sodipodi-0.dtd"
   xmlns="http://www.w3.org/2000/svg"
   xmlns:svg="http://www.w3.org/2000/svg"><defs
     id="defs48"><clipPath
       clipPathUnits="userSpaceOnUse"
       id="clipPath262"><rect
         style="opacity:0.54;fill:#000000"
         id="rect264"
         width="64.067795"
         height="69.491524"
         x="0.33898303"
         y="0.33898303" /></clipPath><clipPath
       clipPathUnits="userSpaceOnUse"
       id="clipPath266"><rect
         style="opacity:0.54;fill:#000000"
         id="rect268"
         width="64.067795"
         height="69.491524"
         x="0.33898303"
         y="0.33898303" /></clipPath><clipPath
       clipPathUnits="userSpaceOnUse"
       id="clipPath270"><rect
         style="opacity:0.54;fill:#000000"
         id="rect272"
         width="64.067795"
         height="69.491524"
         x="0.33898303"
         y="0.33898303" /></clipPath></defs><sodipodi:namedview
     id="namedview46"
     pagecolor="#ffffff"
     bordercolor="#000000"
     borderopacity="0.25"
     inkscape:showpageshadow="2"
     inkscape:pageopacity="0.0"
     inkscape:pagecheckerboard="0"
     inkscape:deskcolor="#d1d1d1"
     showgrid="false"
     inkscape:zoom="2.95"
     inkscape:cx="35.762712"
     inkscape:cy="41.355932"
     inkscape:window-width="1309"
     inkscape:window-height="782"
     inkscape:window-x="1970"
     inkscape:window-y="297"
     inkscape:window-maximized="0"
     inkscape:current-layer="svg44" /><g
     id="g38"
     clip-path="url(#clipPath270)"><path
       d="m 23.32,15.64 c 0.01,0 0.02,0 0.02,0 2.9,-0.39 5.53,-0.51 7.37,-0.41 -0.04,-0.03 -0.08,-0.05 -0.12,-0.08 -0.42,-0.29 -0.85,-0.57 -1.27,-0.85 -0.38,-0.24 -0.77,-0.49 -1.16,-0.73 -0.15,-0.09 -0.3,-0.19 -0.46,-0.28 -0.11,-0.07 -0.22,-0.13 -0.33,-0.2 -0.09,-0.05 -0.18,-0.1 -0.27,-0.16 -4.2,0.35 -11.75,1.38 -17.67,4.41 0,0 0,0 0,0 l 0.14,0.09 c 0.62,0.4 1.27,0.8 1.92,1.2 0.03,0.02 0.05,0.03 0.07,0.05 l 0.1,0.06 c 3.55,-1.58 7.76,-2.56 11.52,-3.07 0.06,-0.02 0.1,-0.03 0.14,-0.03 z"
       id="path2" /><path
       d="m 21.17,23.92 c 0.35,0.17 0.69,0.34 1.04,0.51 0.7,0.33 1.36,0.64 2.02,0.94 2.06,-1.45 4.67,-3.26 7.09,-4.88 -2.88,0.71 -6.63,1.83 -10.15,3.43 z"
       id="path4" /><path
       d="m 12.85,19.44 c 0.69,0.41 1.35,0.8 2.02,1.17 0.47,0.26 0.95,0.53 1.43,0.79 4.5,-2.51 9.65,-4.14 13.46,-5.11 -3.91,-0.04 -11,0.7 -16.91,3.15 z"
       id="path6" /><path
       d="m 35.9,23.44 c 0.01,-0.02 0.03,-0.05 0.04,-0.07 0.22,-0.29 0.41,-0.59 0.6,-0.89 l 0.13,-0.2 c -2.2,1.39 -5.11,3.37 -7.59,5.1 0.27,0.1 0.54,0.21 0.8,0.31 0.16,0.06 0.31,0.11 0.46,0.16 0.36,0.13 0.71,0.25 1.06,0.37 1.69,-1.31 3.2,-2.92 4.5,-4.78 z"
       id="path8" /><path
       d="m 36.79,19.97 c -0.04,-0.04 -0.08,-0.07 -0.12,-0.11 -0.06,-0.05 -0.12,-0.1 -0.18,-0.16 -0.5,-0.44 -1.15,-0.99 -1.94,-1.62 l -0.29,-0.24 c -0.17,-0.13 -0.33,-0.27 -0.51,-0.41 -0.3,-0.24 -0.63,-0.48 -0.96,-0.73 -3.53,0.75 -9.85,2.39 -15.32,5.3 0.77,0.41 1.54,0.82 2.32,1.22 0.04,0.02 0.07,0.04 0.1,0.05 5.23,-2.51 11.1,-3.92 14.16,-4.54 0.26,-0.05 0.52,0.09 0.62,0.33 0.1,0.25 0.01,0.53 -0.21,0.67 -2.75,1.76 -6.3,4.21 -9.04,6.13 0.81,0.35 1.63,0.7 2.43,1.03 3.12,-2.17 7.14,-4.92 9.56,-6.36 -0.16,-0.14 -0.37,-0.33 -0.62,-0.56 z"
       id="path10" /><path
       d="m 5.53,14.7 c 0.02,0.01 0.03,0.02 0.05,0.04 0.69,0.5 1.42,1.01 2.19,1.52 0.2,0.14 0.41,0.27 0.61,0.4 4.17,-2.26 9.2,-3.5 13.39,-4.18 -3.95,-0.09 -10.01,0.18 -16.24,2.22 z"
       id="path12" /><path
       d="m 12.72,6.58 c 3.54,0.38 7.35,1.55 11.26,3.45 l 0.76,0.38 c 0.06,0.03 0.13,0.06 0.19,0.1 l 0.04,0.02 c 0.21,0.1 0.42,0.2 0.63,0.32 0.24,0.12 0.48,0.26 0.72,0.39 l 0.27,0.15 c 0.06,0.03 0.12,0.06 0.18,0.1 l 0.23,0.12 0.35,0.2 c 0.07,0.03 0.11,0.05 0.15,0.08 0.01,0 0.01,0 0.02,0 0.15,0.08 0.29,0.17 0.43,0.26 0.03,0.02 0.06,0.03 0.09,0.05 l 0.23,0.14 c 0.65,0.39 1.26,0.77 1.85,1.16 0.6,0.39 1.16,0.77 1.7,1.15 0.54,0.38 0.99,0.71 1.42,1.04 0,0 0.01,0 0.01,0 1.7,1.27 3.05,2.39 3.96,3.19 0.55,-1.15 1.15,-2.02 1.75,-2.85 0.18,-0.25 0.36,-0.5 0.53,-0.75 v 0 c 0.01,-0.01 0.01,-0.02 0.02,-0.03 0.17,-0.25 0.33,-0.5 0.49,-0.76 0.31,-0.52 0.56,-1.06 0.78,-1.64 0.06,-0.17 0.11,-0.36 0.16,-0.54 C 33.86,7.73 20.8,0.68 10.43,3.01 c -0.02,0 -0.11,0.04 -0.12,0.08 -0.02,0.08 -0.13,0.84 2.39,3.49 0,0 0.01,0 0.02,0 z"
       id="path14" /><path
       d="m 12.53,7.66 c -0.02,0 -0.06,0 -0.1,-0.01 0,0 -0.01,0 -0.01,0 C 12.36,7.64 12.3,7.63 12.27,7.62 11.07,7.55 9.86,7.51 8.67,7.54 8.43,7.54 8.2,7.55 7.97,7.57 7.9,7.58 7.86,7.58 7.83,7.58 c -0.01,0 -0.02,0 -0.03,0 C 7.68,7.59 7.58,7.6 7.48,7.6 7.26,7.62 7.05,7.64 6.84,7.66 6.4,7.69 5.98,7.75 5.58,7.81 5.23,7.85 4.9,7.9 4.58,7.97 4.56,7.97 4.54,7.98 4.52,7.98 4.47,7.99 4.43,8 4.38,8.01 4.07,8.07 3.77,8.13 3.47,8.2 3.06,8.3 2.66,8.4 2.26,8.52 1.47,8.75 0.74,9.02 0.04,9.33 0.03,9.34 0.02,9.36 0,9.37 0.02,9.51 0.06,9.63 0.15,9.8 0.18,9.86 0.2,9.91 0.23,9.95 c 0.05,0.09 0.1,0.15 0.14,0.21 0.01,0.01 0.07,0.09 0.07,0.1 0.06,0.09 0.14,0.18 0.21,0.28 0.19,0.22 0.42,0.47 0.68,0.72 0.07,0.08 0.13,0.13 0.19,0.18 C 5.86,9.7 10.63,8.62 15.72,8.21 14.64,7.96 13.57,7.77 12.53,7.66 Z"
       id="path16" /><path
       d="M 24.45,11.49 24.36,11.45 C 22.52,10.52 20.69,9.75 18.89,9.14 12.93,9.29 7.4,10.34 2.42,12.27 c 0.26,0.23 0.55,0.47 0.85,0.71 0.08,0.06 0.15,0.12 0.23,0.19 0.3,0.24 0.61,0.48 0.94,0.73 8.31,-2.91 16.44,-2.63 20.01,-2.41 z"
       id="path18" /><path
       d="m 39.11,46.64 c -0.03,0.03 -0.05,0.06 -0.07,0.09 -0.18,0.21 -0.34,0.41 -0.5,0.6 v 0 c -0.06,0.07 -0.09,0.11 -0.12,0.14 -0.07,0.08 -0.12,0.15 -0.19,0.22 -0.05,0.06 -0.11,0.13 -0.16,0.19 -0.01,0.01 -0.01,0.02 -0.02,0.02 l -0.12,0.14 c -0.02,0.03 -0.04,0.05 -0.06,0.07 -0.43,0.5 -0.75,0.87 -0.88,1.02 l -0.18,0.54 -0.98,10.77 c 0.1,0.06 0.19,0.12 0.3,0.17 0.02,0.01 0.03,0.03 0.05,0.04 0.02,0.01 0.05,0.01 0.07,0.02 0.24,0.11 0.48,0.22 0.74,0.31 0.16,0.05 0.32,0.11 0.5,0.15 0.03,0.01 0.06,0.03 0.09,0.04 0.04,0.01 0.08,0.02 0.12,0.03 0.02,0 0.04,0 0.06,0 0.08,0.02 0.15,0.04 0.23,0.05 0,0 0.01,0 0.01,0 l 0.68,-7.52 c 0.02,-0.26 0.23,-0.47 0.48,-0.5 0.27,-0.03 0.5,0.13 0.59,0.37 l 2.5,7.5 c 0.34,-0.1 0.68,-0.21 1.02,-0.36 0.03,-0.01 0.06,-0.01 0.09,-0.02 0.05,-0.02 0.09,-0.05 0.13,-0.07 0.02,-0.01 0.03,-0.03 0.04,-0.04 0.1,-0.05 0.19,-0.09 0.27,-0.13 0.08,-0.04 0.16,-0.09 0.24,-0.13 0.02,-0.01 0.03,-0.01 0.05,-0.02 0.08,-0.05 0.14,-0.1 0.21,-0.15 L 40.76,49.55 Z"
       id="path20" /><path
       d="m 50.3,14.99 0.04,-0.42 c 0,-0.02 0.01,-0.04 0.01,-0.06 -2.21,-1.06 -5.04,-1.64 -8.4,-1.76 -0.05,0.17 -0.09,0.32 -0.15,0.47 -0.24,0.65 -0.52,1.25 -0.87,1.83 -0.07,0.11 -0.14,0.22 -0.21,0.33 2.2,1.25 7.96,5.15 9.33,11.98 0.08,-0.23 0.17,-0.48 0.24,-0.7 0.08,-0.23 0.14,-0.46 0.2,-0.7 0.06,-0.24 0.12,-0.45 0.16,-0.65 0,-0.01 0.01,-0.02 0.01,-0.03 0.06,-0.24 0.1,-0.46 0.13,-0.66 0.04,-0.18 0.06,-0.33 0.08,-0.49 0.03,-0.19 0.04,-0.36 0.06,-0.53 0.02,-0.21 0.03,-0.41 0.03,-0.61 0,-1.15 -0.16,-2.31 -0.33,-3.54 C 50.42,18 50.21,16.48 50.3,14.99 Z"
       id="path22" /><path
       d="m 48.17,6.05 c -0.62,0 -1.12,0.5 -1.12,1.12 0,0.62 0.5,1.12 1.12,1.12 0.62,0 1.12,-0.5 1.12,-1.12 0,-0.62 -0.5,-1.12 -1.12,-1.12 z"
       id="path24" /><path
       d="M 52.04,6.94 C 51.99,6.79 51.99,6.63 52.06,6.5 52.17,6.28 52.61,5.47 53.13,4.83 50.74,4.15 47.68,3.73 45.16,4.86 c -2.24,1 -2.46,2.91 -2.72,5.12 -0.06,0.56 -0.14,1.13 -0.24,1.7 3.29,0.13 6.09,0.71 8.35,1.74 0.5,-2.03 1.78,-3.47 3.03,-4.86 C 53.78,8.34 53.97,8.1 54.17,7.88 53.71,7.77 53.13,7.59 52.34,7.27 52.2,7.2 52.09,7.08 52.04,6.94 Z m -3.87,2.44 c -1.22,0 -2.22,-0.99 -2.22,-2.22 0,-1.22 0.99,-2.22 2.22,-2.22 1.22,0 2.22,0.99 2.22,2.22 0,1.23 -1,2.22 -2.22,2.22 z"
       id="path26" /><path
       d="m 60.94,2.99 c -1.53,0.27 -3.01,0.66 -4.39,1.17 -0.67,0.26 -1.39,0.55 -2.12,0.92 -0.29,0.15 -0.74,0.78 -1.09,1.37 0.75,0.27 1.48,0.44 1.71,0.45 0.6,-0.5 1.33,-1.01 2.09,-1.47 1.21,-0.73 2.53,-1.36 3.94,-1.89 0.93,-0.35 1.9,-0.66 2.91,-0.93 -1.03,0.08 -2.05,0.21 -3.05,0.38 z"
       id="path28" /><path
       d="m 45.21,59.44 c 0.31,-0.31 0.53,-0.59 0.66,-0.78 L 43.6,54.62 Z"
       id="path30" /><path
       d="m 33.77,58.6 c 0.17,0.24 0.5,0.66 1.01,1.1 l 0.51,-5.59 -1.19,3.52 z"
       id="path32" /><path
       d="m 40.11,16.31 c -0.09,0.12 -0.17,0.24 -0.26,0.37 -0.62,0.85 -1.25,1.75 -1.78,2.97 0.32,0.29 0.49,0.46 0.49,0.46 0.04,0.04 0.05,0.09 0.08,0.14 0.02,0.04 0.05,0.07 0.06,0.11 0.01,0.05 0,0.1 0,0.14 0,0.05 0.01,0.09 0,0.14 l -0.01,0.03 c 0,0 0,0 0,0 0,0 -0.01,0.02 -0.01,0.02 l -0.05,0.16 c 0,0.02 -0.01,0.03 -0.01,0.05 v 0.02 0.01 c 0,0 0,0 0,0 l -0.12,0.39 c -0.01,0.03 -0.03,0.06 -0.04,0.09 0,0.01 0,0.02 0,0.02 -0.01,0.02 -0.01,0.03 -0.02,0.05 -0.24,0.43 -0.5,0.87 -0.78,1.32 l -0.18,0.27 c -0.18,0.28 -0.37,0.57 -0.58,0.85 -0.88,5.84 -0.61,14 -0.23,19.87 0.1,1.54 0.2,2.83 0.27,3.71 l 0.1,-0.11 c 0.06,-0.07 0.1,-0.12 0.16,-0.19 0.01,-0.02 0.03,-0.04 0.04,-0.06 0.07,-0.08 0.14,-0.16 0.22,-0.25 0.06,-0.07 0.11,-0.13 0.17,-0.2 0.01,-0.02 0.03,-0.03 0.04,-0.05 0.03,-0.04 0.06,-0.08 0.1,-0.12 l 0.06,-0.08 c 0.29,-0.34 0.6,-0.72 0.94,-1.14 0.88,-1.07 1.97,-2.45 3.15,-4.02 0.01,-0.01 0.02,-0.02 0.02,-0.03 0.23,-0.3 0.46,-0.61 0.69,-0.93 0.05,-0.06 0.09,-0.13 0.14,-0.19 0.19,-0.27 0.39,-0.53 0.58,-0.81 0.09,-0.13 0.18,-0.26 0.27,-0.39 0.15,-0.22 0.3,-0.43 0.46,-0.65 0.1,-0.15 0.2,-0.3 0.3,-0.44 0.14,-0.21 0.28,-0.41 0.42,-0.62 0.11,-0.17 0.22,-0.34 0.33,-0.5 0.13,-0.2 0.26,-0.39 0.39,-0.59 0.12,-0.19 0.24,-0.38 0.36,-0.57 0.11,-0.18 0.23,-0.35 0.34,-0.53 0.13,-0.2 0.25,-0.41 0.37,-0.61 0.1,-0.17 0.21,-0.34 0.31,-0.51 0.13,-0.21 0.25,-0.43 0.37,-0.64 0.09,-0.16 0.19,-0.32 0.28,-0.48 0.13,-0.23 0.25,-0.45 0.37,-0.68 0.08,-0.15 0.16,-0.3 0.24,-0.45 0.12,-0.23 0.23,-0.45 0.34,-0.68 0.08,-0.15 0.15,-0.3 0.23,-0.45 0.11,-0.22 0.21,-0.44 0.31,-0.66 0.07,-0.14 0.14,-0.29 0.2,-0.43 C 48.77,21.79 42.3,17.53 40.11,16.31 Z"
       id="path34" /><path
       d="m 39.09,61.41 c 0.09,0.01 0.18,0.01 0.28,0.02 0.2,0.01 0.41,0.03 0.62,0.02 0.2,0 0.38,-0.02 0.57,-0.04 0.21,-0.02 0.41,-0.02 0.62,-0.06 l -1.63,-4.9 z"
       id="path36" /></g><text
     x="0"
     y="79"
     fill="#000000"
     font-size="5px"
     font-weight="bold"
     font-family="'Helvetica Neue', Helvetica, Arial-Unicode, Arial, Sans-serif"
     id="text40"
     clip-path="url(#clipPath266)">Created by rahmat</text><text
     x="0"
     y="84"
     fill="#000000"
     font-size="5px"
     font-weight="bold"
     font-family="'Helvetica Neue', Helvetica, Arial-Unicode, Arial, Sans-serif"
     id="text42"
     clip-path="url(#clipPath262)">from the Noun Project</text></svg>
