<?xml version="1.0" encoding="utf-8"?>
<!-- Generator: Adobe Illustrator 26.2.1, SVG Export Plug-In . SVG Version: 6.00 Build 0)  -->
<svg version="1.1" id="Layer_1" xmlns="http://www.w3.org/2000/svg" xmlns:xlink="http://www.w3.org/1999/xlink" x="0px" y="0px"
	 viewBox="0 0 793.7 220.3" style="enable-background:new 0 0 793.7 220.3;" xml:space="preserve">
<style type="text/css">
	.st0{fill:#050509;}
	.st1{fill:url(#SVGID_1_);}
	.st2{fill:url(#SVGID_00000122710023126836050200000010088432450073415837_);}
</style>
<g>
	<path class="st0" d="M19.9,34.9v79.2h20.4V23.8H31C24.9,23.8,19.9,28.8,19.9,34.9L19.9,34.9z"/>
	<path class="st0" d="M112,34.8v43.4L71.3,23.9l-0.1-0.1H52.7v90.4h20V58l42.1,56l0.1,0.1H132V23.8h-9C116.9,23.8,112,28.7,112,34.8
		z"/>
	<path class="st0" d="M222.7,42V23.8h-8.3c-6.4,0-11.7,5.2-11.7,11.7l0,0v42.7L162,23.9l-0.1-0.1h-18.5v90.4h20V58l42,56l0.1,0.1
		h17.1V97.4C214.3,79.9,214.3,59.5,222.7,42L222.7,42z"/>
	<path class="st0" d="M419.1,23.8h-22L374,86.2l-23-62.4h-22.5l1.3,3.2c9.8,11.1,15.5,25.3,16.1,40.2l19,47.6h17.9L419,24.4
		L419.1,23.8z"/>
	<path class="st0" d="M455.7,23.1H437l-38.3,90.5l-0.2,0.5h20.9l8.2-20.1h37.2l8.1,19.9l0.1,0.2h21.3l-38.4-90.8L455.7,23.1z
		 M434.8,75.9l11.3-27.6l11.3,27.6H434.8z"/>
	<path class="st0" d="M476.2,31.4c0,6.4,5.2,11.6,11.6,11.6h15.5v71.4h20.4V43h27.2V24h-74.7V31.4z"/>
	<path class="st0" d="M568.7,23.8h-8.9v90.4h20.4V35.3C580.3,29,575.1,23.8,568.7,23.8C568.8,23.8,568.8,23.8,568.7,23.8z"/>
	<path class="st0" d="M640.3,22.2c-26.9,0-48,20.5-48,46.7v0.2c0,26.5,20.5,46.5,47.7,46.5c26.9,0,48-20.5,48-46.7v-0.3
		C688,42.2,667.5,22.2,640.3,22.2z M666.7,69.2c0,15.7-11.3,27.5-26.4,27.5c-15.2,0-26.6-11.9-26.6-27.8v-0.3
		c0-15.7,11.3-27.5,26.4-27.5c15.2,0,26.6,11.9,26.6,27.8V69.2z"/>
	<path class="st0" d="M763.4,23.8h-9v54.4L713.7,24l-0.1-0.1H695v90.4h20V58l42.1,56l0.1,0.1h17.1V34.8
		C774.4,28.7,769.4,23.8,763.4,23.8z"/>
	
		<linearGradient id="SVGID_1_" gradientUnits="userSpaceOnUse" x1="314.9367" y1="156.579" x2="250.0435" y2="117.0788" gradientTransform="matrix(1 0 0 -1 0 219)">
		<stop  offset="0" style="stop-color:#E83829"/>
		<stop  offset="1" style="stop-color:#630832"/>
	</linearGradient>
	<path class="st1" d="M277.4,38.3c-0.3,0.2-0.6,0.3-1,0.5c3.9,0.3,7.7,0.9,11.4,2c14.3,4.6,22.7,19.8,23.4,33.4
		c1,20.2-13.8,37-35.6,37.5c-12.3,0.4-24.2-4.6-32.6-13.6c-7.2-7.9-11.6-17.2-13.3-28.6c-0.1-0.3-0.4-0.5-0.7-0.5s-0.6,0.3-0.6,0.6
		c-0.1,2.5,0.1,5,0.5,7.4c3.1,17.8,15.7,32.7,33.7,39.9c17.9,7.1,34.7,4.3,50.2-6.2c24.7-16.7,23.7-53.9-2.6-69.3
		C301.3,36.5,287,33.7,277.4,38.3z"/>
	
		<linearGradient id="SVGID_00000171710328864122733450000001408509147079354503_" gradientUnits="userSpaceOnUse" x1="252.1898" y1="138.379" x2="302.9758" y2="180.7007" gradientTransform="matrix(1 0 0 -1 0 219)">
		<stop  offset="0" style="stop-color:#E83829"/>
		<stop  offset="1" style="stop-color:#630832"/>
	</linearGradient>
	<path style="fill:url(#SVGID_00000171710328864122733450000001408509147079354503_);" d="M286.3,99.6c0.3-0.2,0.6-0.3,1-0.5
		c-3.9-0.2-7.7-0.7-11.5-1.7c-14.4-4.2-23.2-19.3-24.1-32.9c-1.4-20.3,13-37.4,34.7-38.4c12.3-0.7,24.3,4,32.9,12.8
		c7.4,7.7,12,17,14,28.2c0.1,0.3,0.4,0.5,0.7,0.5c0.3,0,0.6-0.3,0.6-0.6c0-2.5-0.2-5-0.6-7.4c-3.6-17.8-16.5-32.4-34.6-39.1
		s-34.8-3.5-50,7.3C225.1,45,227,82.3,253.7,97C262.4,102,276.7,104.4,286.3,99.6z"/>
	<g>
		<path d="M19.7,151.3L19.7,151.3c0-7.1,5.3-12.8,12.8-12.8c4.6,0,7.4,1.5,9.7,3.8l-3.4,4c-1.9-1.7-3.8-2.8-6.3-2.8
			c-4.1,0-7.1,3.4-7.1,7.7v0.1c0,4.2,2.9,7.7,7.1,7.7c2.8,0,4.5-1.1,6.5-2.9l3.4,3.5c-2.5,2.7-5.3,4.4-10.1,4.4
			C25.1,164,19.7,158.4,19.7,151.3z"/>
		<path d="M44,158.2L44,158.2c0-4.2,3.1-6.1,7.6-6.1c1.9,0,3.3,0.3,4.6,0.8v-0.3c0-2.2-1.4-3.4-4-3.4c-2,0-3.5,0.4-5.2,1l-1.3-4.1
			c2.1-0.9,4.1-1.5,7.3-1.5c2.9,0,5,0.8,6.4,2.1c1.4,1.4,2,3.5,2,6v10.9h-5.2v-2c-1.3,1.4-3.1,2.4-5.7,2.4
			C47,163.9,44,161.9,44,158.2z M56.3,156.9V156c-0.9-0.4-2.1-0.7-3.4-0.7c-2.3,0-3.7,0.9-3.7,2.6v0.1c0,1.4,1.2,2.3,2.9,2.3
			C54.6,160.2,56.3,158.9,56.3,156.9z"/>
		<path d="M65,144.7h5.3v2.7c1.2-1.6,2.8-3,5.5-3c4,0,6.4,2.7,6.4,7v12.2h-5.3v-10.5c0-2.5-1.2-3.8-3.2-3.8s-3.3,1.3-3.3,3.8v10.5
			H65V144.7z"/>
		<path d="M84.6,158.2L84.6,158.2c0-4.2,3.1-6.1,7.6-6.1c1.9,0,3.3,0.3,4.6,0.8v-0.3c0-2.2-1.4-3.4-4-3.4c-2,0-3.5,0.4-5.2,1
			l-1.3-4.1c2.1-0.9,4.1-1.5,7.3-1.5c2.9,0,5,0.8,6.4,2.1c1.4,1.4,2,3.5,2,6v10.9h-5.2v-2c-1.3,1.4-3.1,2.4-5.7,2.4
			C87.5,163.9,84.6,161.9,84.6,158.2z M96.9,156.9V156c-0.9-0.4-2.1-0.7-3.4-0.7c-2.3,0-3.7,0.9-3.7,2.6v0.1c0,1.4,1.2,2.3,2.9,2.3
			C95.2,160.2,96.9,158.9,96.9,156.9z"/>
		<path d="M104.6,154.2L104.6,154.2c0-6.4,4.1-9.8,8.6-9.8c2.8,0,4.6,1.3,5.9,2.8v-9.3h5.3v25.7H119v-2.7c-1.3,1.8-3.1,3.1-5.9,3.1
			C108.8,163.9,104.6,160.5,104.6,154.2z M119.1,154.2L119.1,154.2c0-3.2-2.1-5.3-4.6-5.3s-4.6,2-4.6,5.2v0.1c0,3.1,2.1,5.2,4.6,5.2
			S119.1,157.3,119.1,154.2z"/>
		<path d="M127,158.2L127,158.2c0-4.2,3.1-6.1,7.6-6.1c1.9,0,3.3,0.3,4.6,0.8v-0.3c0-2.2-1.4-3.4-4-3.4c-2,0-3.5,0.4-5.2,1l-1.3-4.1
			c2.1-0.9,4.1-1.5,7.3-1.5c2.9,0,5,0.8,6.4,2.1c1.4,1.4,2,3.5,2,6v10.9h-5.2v-2c-1.3,1.4-3.1,2.4-5.7,2.4
			C129.9,163.9,127,161.9,127,158.2z M139.3,156.9V156c-0.9-0.4-2.1-0.7-3.4-0.7c-2.3,0-3.7,0.9-3.7,2.6v0.1c0,1.4,1.2,2.3,2.9,2.3
			C137.6,160.2,139.3,158.9,139.3,156.9z"/>
		<path d="M157.9,139h18.7v4.9h-13.3v5.2H175v4.9h-11.7v9.5h-5.4V139z"/>
		<path d="M177.6,154.3L177.6,154.3c0-5.5,4.4-9.9,10.2-9.9s10.2,4.3,10.2,9.7v0.1c0,5.4-4.4,9.8-10.2,9.8
			C181.9,164,177.6,159.7,177.6,154.3z M192.7,154.3L192.7,154.3c0-2.8-2-5.3-5-5.3c-3.1,0-4.9,2.4-4.9,5.1v0.1c0,2.8,2,5.2,5,5.2
			C190.9,159.4,192.7,157,192.7,154.3z"/>
		<path d="M200.5,156.9v-12.2h5.3v10.5c0,2.5,1.2,3.8,3.2,3.8s3.3-1.3,3.3-3.8v-10.5h5.3v18.8h-5.3v-2.7c-1.2,1.6-2.8,3-5.5,3
			C202.9,163.9,200.5,161.3,200.5,156.9z"/>
		<path d="M221.5,144.7h5.3v2.7c1.2-1.6,2.8-3,5.5-3c4,0,6.4,2.7,6.4,7v12.2h-5.3v-10.5c0-2.5-1.2-3.8-3.2-3.8s-3.3,1.3-3.3,3.8
			v10.5h-5.3L221.5,144.7L221.5,144.7z"/>
		<path d="M241.5,154.2L241.5,154.2c0-6.4,4.1-9.8,8.6-9.8c2.8,0,4.6,1.3,5.9,2.8v-9.3h5.3v25.7H256v-2.7c-1.3,1.8-3.1,3.1-5.9,3.1
			C245.7,163.9,241.5,160.5,241.5,154.2z M256,154.2L256,154.2c0-3.2-2.1-5.3-4.6-5.3s-4.6,2-4.6,5.2v0.1c0,3.1,2.1,5.2,4.6,5.2
			S256,157.3,256,154.2z"/>
		<path d="M263.9,158.2L263.9,158.2c0-4.2,3.1-6.1,7.6-6.1c1.9,0,3.3,0.3,4.6,0.8v-0.3c0-2.2-1.4-3.4-4-3.4c-2,0-3.5,0.4-5.2,1
			l-1.3-4.1c2.1-0.9,4.1-1.5,7.3-1.5c2.9,0,5,0.8,6.4,2.1c1.4,1.4,2,3.5,2,6v10.9h-5.2v-2c-1.3,1.4-3.1,2.4-5.7,2.4
			C266.8,163.9,263.9,161.9,263.9,158.2z M276.2,156.9V156c-0.9-0.4-2.1-0.7-3.4-0.7c-2.3,0-3.7,0.9-3.7,2.6v0.1
			c0,1.4,1.2,2.3,2.9,2.3C274.5,160.2,276.2,158.9,276.2,156.9z"/>
		<path d="M285.4,158.2v-8.9h-2.2v-4.6h2.2v-4.8h5.3v4.8h4.4v4.6h-4.4v8c0,1.2,0.5,1.8,1.7,1.8c1,0,1.9-0.2,2.6-0.7v4.3
			c-1.1,0.7-2.4,1.1-4.2,1.1C287.6,163.9,285.4,162.6,285.4,158.2z"/>
		<path d="M298.1,137.9h5.6v4.7h-5.6V137.9z M298.3,144.7h5.3v18.8h-5.3V144.7z"/>
		<path d="M306.3,154.3L306.3,154.3c0-5.5,4.4-9.9,10.2-9.9c5.8,0,10.2,4.3,10.2,9.7v0.1c0,5.4-4.4,9.8-10.2,9.8
			C310.7,164,306.3,159.7,306.3,154.3z M321.5,154.3L321.5,154.3c0-2.8-2-5.3-5-5.3c-3.1,0-4.9,2.4-4.9,5.1v0.1c0,2.8,2,5.2,5,5.2
			C319.6,159.4,321.5,157,321.5,154.3z"/>
		<path d="M329.5,144.7h5.3v2.7c1.2-1.6,2.8-3,5.5-3c4,0,6.4,2.7,6.4,7v12.2h-5.3v-10.5c0-2.5-1.2-3.8-3.2-3.8s-3.3,1.3-3.3,3.8
			v10.5h-5.3v-18.9H329.5z"/>
		<path d="M21.1,184.7h-2.2v-4.4h2.2v-1.2c0-2.1,0.5-3.6,1.5-4.6s2.4-1.5,4.3-1.5c1.7,0,2.8,0.2,3.8,0.5v4.4
			c-0.8-0.3-1.5-0.5-2.4-0.5c-1.2,0-1.9,0.6-1.9,2v0.7h4.3v4.4h-4.3v14.3h-5.3C21.1,198.8,21.1,184.7,21.1,184.7z"/>
		<path d="M31.4,189.6L31.4,189.6c0-5.5,4.4-9.9,10.2-9.9s10.2,4.3,10.2,9.7v0.1c0,5.4-4.4,9.8-10.2,9.8
			C35.7,199.4,31.4,195,31.4,189.6z M46.5,189.6L46.5,189.6c0-2.8-2-5.3-5-5.3c-3.1,0-4.9,2.4-4.9,5.1v0.1c0,2.8,2,5.2,5,5.2
			C44.7,194.8,46.5,192.4,46.5,189.6z"/>
		<path d="M54.5,180.1h5.3v3.8c1.1-2.6,2.8-4.3,6-4.1v5.6h-0.3c-3.5,0-5.7,2.1-5.7,6.6v7h-5.3V180.1z"/>
		<path d="M78.4,174.3h5.4v24.6h-5.4V174.3z"/>
		<path d="M88.2,180.1h5.3v2.7c1.2-1.6,2.8-3,5.5-3c4,0,6.4,2.7,6.4,7V199h-5.3v-10.5c0-2.5-1.2-3.8-3.2-3.8s-3.3,1.3-3.3,3.8V199
			h-5.3L88.2,180.1L88.2,180.1z"/>
		<path d="M109.1,180.1h5.3v2.7c1.2-1.6,2.8-3,5.5-3c4,0,6.4,2.7,6.4,7V199H121v-10.5c0-2.5-1.2-3.8-3.2-3.8s-3.3,1.3-3.3,3.8V199
			h-5.3L109.1,180.1L109.1,180.1z"/>
		<path d="M129,189.6L129,189.6c0-5.5,4.4-9.9,10.2-9.9s10.2,4.3,10.2,9.7v0.1c0,5.4-4.4,9.8-10.2,9.8
			C133.3,199.4,129,195,129,189.6z M144.1,189.6L144.1,189.6c0-2.8-2-5.3-5-5.3c-3.1,0-4.9,2.4-4.9,5.1v0.1c0,2.8,2,5.2,5,5.2
			C142.2,194.8,144.1,192.4,144.1,189.6z"/>
		<path d="M149.4,180.1h5.7l4.2,12.6l4.3-12.6h5.6l-7.4,19H157L149.4,180.1z"/>
		<path d="M169.2,193.5L169.2,193.5c0-4.2,3.1-6.1,7.6-6.1c1.9,0,3.3,0.3,4.6,0.8v-0.3c0-2.2-1.4-3.4-4-3.4c-2,0-3.5,0.4-5.2,1
			l-1.3-4.1c2.1-0.9,4.1-1.5,7.3-1.5c2.9,0,5,0.8,6.4,2.1c1.4,1.4,2,3.5,2,6v10.9h-5.2v-2c-1.3,1.4-3.1,2.4-5.7,2.4
			C172.1,199.3,169.2,197.3,169.2,193.5z M181.5,192.3v-0.9c-0.9-0.4-2.1-0.7-3.4-0.7c-2.3,0-3.7,0.9-3.7,2.6v0.1
			c0,1.4,1.2,2.3,2.9,2.3C179.8,195.6,181.5,194.2,181.5,192.3z"/>
		<path d="M190.7,193.6v-8.9h-2.2v-4.6h2.2v-4.8h5.3v4.8h4.4v4.6H196v8c0,1.2,0.5,1.8,1.7,1.8c1,0,1.9-0.2,2.6-0.7v4.3
			c-1.1,0.7-2.4,1.1-4.2,1.1C193,199.3,190.7,198,190.7,193.6z"/>
		<path d="M203.5,173.3h5.6v4.7h-5.6V173.3z M203.6,180.1h5.3v18.8h-5.3V180.1z"/>
		<path d="M211.7,189.6L211.7,189.6c0-5.5,4.4-9.9,10.2-9.9s10.2,4.3,10.2,9.7v0.1c0,5.4-4.4,9.8-10.2,9.8
			C216,199.4,211.7,195,211.7,189.6z M226.8,189.6L226.8,189.6c0-2.8-2-5.3-5-5.3c-3.1,0-4.9,2.4-4.9,5.1v0.1c0,2.8,2,5.2,5,5.2
			C224.9,194.8,226.8,192.4,226.8,189.6z"/>
		<path d="M234.8,180.1h5.3v2.7c1.2-1.6,2.8-3,5.5-3c4,0,6.4,2.7,6.4,7V199h-5.3v-10.5c0-2.5-1.2-3.8-3.2-3.8s-3.3,1.3-3.3,3.8V199
			h-5.3L234.8,180.1L234.8,180.1z"/>
	</g>
	<g>
		<path d="M402.5,138h18.7v4.9h-13.3v5.2h11.7v4.9h-11.7v9.5h-5.4L402.5,138L402.5,138z"/>
		<path d="M422.2,153.3L422.2,153.3c0-5.5,4.4-9.9,10.2-9.9c5.8,0,10.2,4.3,10.2,9.7v0.1c0,5.4-4.4,9.8-10.2,9.8
			C426.5,163,422.2,158.7,422.2,153.3z M437.3,153.3L437.3,153.3c0-2.8-2-5.3-5-5.3c-3.1,0-4.9,2.4-4.9,5.1v0.1c0,2.8,2,5.2,5,5.2
			C435.5,158.4,437.3,156.1,437.3,153.3z"/>
		<path d="M445.3,143.8h5.3v2.7c1.2-1.6,2.8-3,5.5-3c4,0,6.4,2.7,6.4,7v12.2h-5.3v-10.5c0-2.5-1.2-3.8-3.2-3.8s-3.3,1.3-3.3,3.8
			v10.5h-5.3v-18.9H445.3z"/>
		<path d="M465.3,153.2L465.3,153.2c0-6.4,4.1-9.8,8.6-9.8c2.8,0,4.6,1.3,5.9,2.8V137h5.3v25.7h-5.3V160c-1.3,1.8-3.1,3.1-5.9,3.1
			C469.5,163,465.3,159.5,465.3,153.2z M479.8,153.2L479.8,153.2c0-3.2-2.1-5.3-4.6-5.3s-4.6,2-4.6,5.2v0.1c0,3.1,2.1,5.2,4.6,5.2
			S479.8,156.4,479.8,153.2z"/>
		<path d="M487.7,157.2L487.7,157.2c0-4.2,3.1-6.1,7.6-6.1c1.9,0,3.3,0.3,4.6,0.8v-0.3c0-2.2-1.4-3.4-4-3.4c-2,0-3.5,0.4-5.2,1
			l-1.3-4.1c2.1-0.9,4.1-1.5,7.3-1.5c2.9,0,5,0.8,6.4,2.1c1.4,1.4,2,3.5,2,6v10.9h-5.2v-2c-1.3,1.4-3.1,2.4-5.7,2.4
			C490.6,163,487.7,160.9,487.7,157.2z M500,156v-1c-0.9-0.4-2.1-0.7-3.4-0.7c-2.3,0-3.7,0.9-3.7,2.6v0.1c0,1.4,1.2,2.3,2.9,2.3
			C498.3,159.3,500,157.9,500,156z"/>
		<path d="M509.2,157.3v-8.9H507v-4.6h2.2V139h5.3v4.8h4.4v4.6h-4.4v8c0,1.2,0.5,1.8,1.7,1.8c1,0,1.9-0.2,2.6-0.7v4.3
			c-1.1,0.7-2.4,1.1-4.2,1.1C511.4,162.9,509.2,161.6,509.2,157.3z"/>
		<path d="M521.9,137h5.6v4.7h-5.6V137z M522.1,143.8h5.3v18.8h-5.3V143.8z"/>
		<path d="M530.1,153.3L530.1,153.3c0-5.5,4.4-9.9,10.2-9.9s10.2,4.3,10.2,9.7v0.1c0,5.4-4.4,9.8-10.2,9.8
			C534.5,163,530.1,158.7,530.1,153.3z M545.2,153.3L545.2,153.3c0-2.8-2-5.3-5-5.3c-3.1,0-4.9,2.4-4.9,5.1v0.1c0,2.8,2,5.2,5,5.2
			C543.4,158.4,545.2,156.1,545.2,153.3z"/>
		<path d="M553.2,143.8h5.3v2.7c1.2-1.6,2.8-3,5.5-3c4,0,6.4,2.7,6.4,7v12.2h-5.3v-10.5c0-2.5-1.2-3.8-3.2-3.8s-3.3,1.3-3.3,3.8
			v10.5h-5.3v-18.9H553.2z"/>
		<path d="M582.7,153.3L582.7,153.3c0-5.4,4.1-9.9,9.9-9.9c3.5,0,5.8,1.2,7.5,3.2l-3.3,3.5c-1.2-1.3-2.4-2.1-4.3-2.1
			c-2.7,0-4.6,2.4-4.6,5.1v0.1c0,2.9,1.9,5.2,4.8,5.2c1.8,0,3-0.8,4.3-2l3.1,3.2c-1.8,2-3.9,3.4-7.7,3.4
			C586.8,163,582.7,158.7,582.7,153.3z"/>
		<path d="M601.4,157.2L601.4,157.2c0-4.2,3.1-6.1,7.6-6.1c1.9,0,3.3,0.3,4.6,0.8v-0.3c0-2.2-1.4-3.4-4-3.4c-2,0-3.5,0.4-5.2,1
			l-1.3-4.1c2.1-0.9,4.1-1.5,7.3-1.5c2.9,0,5,0.8,6.4,2.1c1.4,1.4,2,3.5,2,6v10.9h-5.2v-2c-1.3,1.4-3.1,2.4-5.7,2.4
			C604.3,163,601.4,160.9,601.4,157.2z M613.6,156v-1c-0.9-0.4-2.1-0.7-3.4-0.7c-2.3,0-3.7,0.9-3.7,2.6v0.1c0,1.4,1.2,2.3,2.9,2.3
			C611.9,159.3,613.6,157.9,613.6,156z"/>
		<path d="M622.3,143.8h5.3v2.7c1.2-1.6,2.8-3,5.5-3c4,0,6.4,2.7,6.4,7v12.2h-5.3v-10.5c0-2.5-1.2-3.8-3.2-3.8s-3.3,1.3-3.3,3.8
			v10.5h-5.3v-18.9H622.3z"/>
		<path d="M641.9,157.2L641.9,157.2c0-4.2,3.1-6.1,7.6-6.1c1.9,0,3.3,0.3,4.6,0.8v-0.3c0-2.2-1.4-3.4-4-3.4c-2,0-3.5,0.4-5.2,1
			l-1.3-4.1c2.1-0.9,4.1-1.5,7.3-1.5c2.9,0,5,0.8,6.4,2.1c1.4,1.4,2,3.5,2,6v10.9h-5.2v-2c-1.3,1.4-3.1,2.4-5.7,2.4
			C644.8,163,641.9,160.9,641.9,157.2z M654.2,156v-1c-0.9-0.4-2.1-0.7-3.4-0.7c-2.3,0-3.7,0.9-3.7,2.6v0.1c0,1.4,1.2,2.3,2.9,2.3
			C652.5,159.3,654.2,157.9,654.2,156z"/>
		<path d="M661.9,153.2L661.9,153.2c0-6.4,4.1-9.8,8.6-9.8c2.8,0,4.6,1.3,5.9,2.8V137h5.3v25.7h-5.3V160c-1.3,1.8-3.1,3.1-5.9,3.1
			C666.1,163,661.9,159.5,661.9,153.2z M676.4,153.2L676.4,153.2c0-3.2-2.1-5.3-4.6-5.3s-4.6,2-4.6,5.2v0.1c0,3.1,2.1,5.2,4.6,5.2
			S676.4,156.4,676.4,153.2z"/>
		<path d="M685.4,137h5.6v4.7h-5.6V137z M685.6,143.8h5.3v18.8h-5.3V143.8z"/>
		<path d="M693.7,153.3L693.7,153.3c0-5.4,3.8-9.9,9.3-9.9c6.3,0,9.2,4.9,9.2,10.2c0,0.4,0,0.9-0.1,1.4H699c0.5,2.4,2.2,3.7,4.6,3.7
			c1.8,0,3.1-0.6,4.6-1.9l3.1,2.7c-1.8,2.2-4.3,3.5-7.7,3.5C697.9,163,693.7,159.1,693.7,153.3z M707,151.7c-0.3-2.4-1.7-4-4-4
			c-2.2,0-3.7,1.6-4.1,4H707z"/>
		<path d="M715,143.8h5.3v2.7c1.2-1.6,2.8-3,5.5-3c4,0,6.4,2.7,6.4,7v12.2h-5.3v-10.5c0-2.5-1.2-3.8-3.2-3.8s-3.3,1.3-3.3,3.8v10.5
			H715V143.8z"/>
		<path d="M735.9,143.8h5.3v2.7c1.2-1.6,2.8-3,5.5-3c4,0,6.4,2.7,6.4,7v12.2h-5.3v-10.5c0-2.5-1.2-3.8-3.2-3.8s-3.3,1.3-3.3,3.8
			v10.5H736v-18.9H735.9z"/>
		<path d="M755.7,153.3L755.7,153.3c0-5.4,3.8-9.9,9.3-9.9c6.3,0,9.2,4.9,9.2,10.2c0,0.4,0,0.9-0.1,1.4H761c0.5,2.4,2.2,3.7,4.6,3.7
			c1.8,0,3.1-0.6,4.6-1.9l3.1,2.7c-1.8,2.2-4.3,3.5-7.7,3.5C759.9,163,755.7,159.1,755.7,153.3z M769,151.7c-0.3-2.4-1.7-4-4-4
			c-2.2,0-3.7,1.6-4.1,4H769z"/>
		<path d="M401.9,179.1h5.3v2.7c1.3-1.8,3.1-3.1,5.9-3.1c4.4,0,8.6,3.4,8.6,9.7v0.1c0,6.3-4.1,9.7-8.6,9.7c-2.8,0-4.6-1.3-5.9-2.8
			v8.1h-5.3V179.1z M416.4,188.6L416.4,188.6c0-3.2-2.1-5.3-4.6-5.3s-4.6,2.1-4.6,5.2v0.1c0,3.1,2.1,5.2,4.6,5.2
			S416.4,191.8,416.4,188.6z"/>
		<path d="M423.6,188.7L423.6,188.7c0-5.5,4.4-9.9,10.2-9.9c5.8,0,10.2,4.3,10.2,9.7v0.1c0,5.4-4.4,9.8-10.2,9.8
			C427.9,198.4,423.6,194.1,423.6,188.7z M438.7,188.7L438.7,188.7c0-2.8-2-5.3-5-5.3c-3.1,0-4.9,2.4-4.9,5.1v0.1c0,2.8,2,5.2,5,5.2
			C436.9,193.8,438.7,191.4,438.7,188.7z"/>
		<path d="M446.5,191.3v-12.2h5.3v10.5c0,2.5,1.2,3.8,3.2,3.8s3.3-1.3,3.3-3.8v-10.5h5.3V198h-5.3v-2.7c-1.2,1.6-2.8,3-5.5,3
			C448.8,198.3,446.5,195.7,446.5,191.3z"/>
		<path d="M467.5,179.1h5.3v3.8c1.1-2.6,2.8-4.3,6-4.1v5.6h-0.3c-3.5,0-5.7,2.1-5.7,6.6v7h-5.3V179.1z"/>
		<path d="M490.8,172.3h5.3V198h-5.3V172.3z"/>
		<path d="M499,182.5c2.4-0.2,3.6-1.5,3.4-3.5h-2.2v-5.6h5.7v4.7c0,4.6-2.3,6.5-6.5,6.6L499,182.5z"/>
		<path d="M509.1,172.3h5.6v4.7h-5.6V172.3z M509.3,179.1h5.3V198h-5.3V179.1z"/>
		<path d="M518.4,179.1h5.3v2.7c1.2-1.6,2.8-3,5.5-3c4,0,6.4,2.7,6.4,7V198h-5.3v-10.5c0-2.5-1.2-3.8-3.2-3.8s-3.3,1.3-3.3,3.8V198
			h-5.3v-18.9H518.4z"/>
		<path d="M539.3,179.1h5.3v2.7c1.2-1.6,2.8-3,5.5-3c4,0,6.4,2.7,6.4,7V198h-5.3v-10.5c0-2.5-1.2-3.8-3.2-3.8s-3.3,1.3-3.3,3.8V198
			h-5.3v-18.9H539.3z"/>
		<path d="M559.2,188.7L559.2,188.7c0-5.5,4.4-9.9,10.2-9.9s10.2,4.3,10.2,9.7v0.1c0,5.4-4.4,9.8-10.2,9.8
			C563.5,198.4,559.2,194.1,559.2,188.7z M574.3,188.7L574.3,188.7c0-2.8-2-5.3-5-5.3c-3.1,0-4.9,2.4-4.9,5.1v0.1c0,2.8,2,5.2,5,5.2
			C572.4,193.8,574.3,191.4,574.3,188.7z"/>
		<path d="M579.5,179.1h5.7l4.2,12.6l4.3-12.6h5.6l-7.4,19H587L579.5,179.1z"/>
		<path d="M599.4,192.6L599.4,192.6c0-4.2,3.1-6.1,7.6-6.1c1.9,0,3.3,0.3,4.6,0.8V187c0-2.2-1.4-3.4-4-3.4c-2,0-3.5,0.4-5.2,1
			l-1.3-4.1c2.1-0.9,4.1-1.5,7.3-1.5c2.9,0,5,0.8,6.4,2.1c1.4,1.4,2,3.5,2,6V198h-5.2v-2c-1.3,1.4-3.1,2.4-5.7,2.4
			C602.3,198.3,599.4,196.3,599.4,192.6z M611.7,191.3v-0.9c-0.9-0.4-2.1-0.7-3.4-0.7c-2.3,0-3.7,0.9-3.7,2.6v0.1
			c0,1.4,1.2,2.3,2.9,2.3C610,194.6,611.7,193.3,611.7,191.3z"/>
		<path d="M620.9,192.6v-8.9h-2.2v-4.6h2.2v-4.8h5.3v4.8h4.4v4.6h-4.4v8c0,1.2,0.5,1.8,1.7,1.8c1,0,1.9-0.2,2.6-0.7v4.3
			c-1.1,0.7-2.4,1.1-4.2,1.1C623.1,198.3,620.9,197,620.9,192.6z"/>
		<path d="M633.6,172.3h5.6v4.7h-5.6V172.3z M633.8,179.1h5.3V198h-5.3V179.1z"/>
		<path d="M641.8,188.7L641.8,188.7c0-5.5,4.4-9.9,10.2-9.9s10.2,4.3,10.2,9.7v0.1c0,5.4-4.4,9.8-10.2,9.8
			C646.2,198.4,641.8,194.1,641.8,188.7z M657,188.7L657,188.7c0-2.8-2-5.3-5-5.3c-3.1,0-4.9,2.4-4.9,5.1v0.1c0,2.8,2,5.2,5,5.2
			S657,191.4,657,188.7z"/>
		<path d="M665,179.1h5.3v2.7c1.2-1.6,2.8-3,5.5-3c4,0,6.4,2.7,6.4,7V198h-5.3v-10.5c0-2.5-1.2-3.8-3.2-3.8s-3.3,1.3-3.3,3.8V198
			H665V179.1z"/>
	</g>
</g>
</svg>
