<?xml version="1.0" encoding="UTF-8" standalone="no"?>
<svg
   version="1.1"
   x="0px"
   y="0px"
   viewBox="0 0 100 103"
   enable-background="new 0 0 100 100"
   xml:space="preserve"
   id="svg94"
   sodipodi:docname="noun-finch-flipped-1186445.svg"
   width="100"
   height="103"
   inkscape:version="1.2.2 (b0a84865, 2022-12-01)"
   xmlns:inkscape="http://www.inkscape.org/namespaces/inkscape"
   xmlns:sodipodi="http://sodipodi.sourceforge.net/DTD/sodipodi-0.dtd"
   xmlns="http://www.w3.org/2000/svg"
   xmlns:svg="http://www.w3.org/2000/svg"><defs
     id="defs98"><clipPath
       clipPathUnits="userSpaceOnUse"
       id="clipPath322"><rect
         style="opacity:0.54;fill:#000000"
         id="rect324"
         width="99.046608"
         height="96.927971"
         x="0.529661"
         y="0.52966106" /></clipPath></defs><sodipodi:namedview
     id="namedview96"
     pagecolor="#ffffff"
     bordercolor="#000000"
     borderopacity="0.25"
     inkscape:showpageshadow="2"
     inkscape:pageopacity="0.0"
     inkscape:pagecheckerboard="0"
     inkscape:deskcolor="#d1d1d1"
     showgrid="false"
     inkscape:zoom="1.888"
     inkscape:cx="53.760593"
     inkscape:cy="65.942797"
     inkscape:window-width="1459"
     inkscape:window-height="717"
     inkscape:window-x="1856"
     inkscape:window-y="229"
     inkscape:window-maximized="0"
     inkscape:current-layer="svg94" /><g
     id="g88"
     clip-path="url(#clipPath322)"
     transform="matrix(-1,0,0,1,99.286305,0)"><path
       d="m 87.176,67.496 c -9.927,8.047 -19.348,5.858 -28.745,0.641 -0.003,-0.23 -0.053,-0.47 -0.177,-0.711 -1.283,-2.505 -1.899,-5.008 -1.94,-7.434 4.426,-3.096 9.396,-5.103 14.66,-6.318 1.883,-0.436 0.924,-3.279 -0.947,-2.848 -4.688,1.083 -9.189,2.809 -13.282,5.299 0.888,-3.586 3.084,-6.888 6.33,-9.621 1.459,-1.229 -0.167,-3.755 -1.648,-2.508 -4.861,4.095 -7.696,9.18 -8.021,14.671 -0.121,0.313 -0.127,0.646 -0.04,0.958 -0.011,1.983 0.304,4.015 0.972,6.068 C 46.66,60.836 38.95,54.667 30.948,51.086 l 0.102,-0.764 3.122,-1.702 0.454,-0.12 c 1.438,0.813 2,-1.563 2,-1.563 6.188,0 7.813,-2.875 7.813,-2.875 6.156,-5.083 15.169,-3.787 16.849,-3.49 l -9.661,-1.823 -4.875,-1.5 5.938,0.438 C 51,36.813 25.063,29.5 25.063,29.5 l -4.125,-2.938 c -5.44,-2.146 -7.329,0.805 -7.871,2.083 0.465,0.785 1.163,2.338 1.137,4.437 0.705,0.887 1.233,2.543 1.233,2.543 2.063,4.938 5.188,7.125 5.188,7.125 1.249,1.326 2.719,2.223 4.224,2.827 L 22.151,48.4 c -3.227,-0.467 -6.513,-0.323 -9.875,0.676 -1.854,0.551 -0.906,3.398 0.948,2.848 6.787,-2.017 13.426,-0.201 19.717,3.028 -8.174,1.936 -16.692,1.607 -21.524,9.859 -0.981,1.675 1.693,3.038 2.666,1.377 2.348,-4.01 6.005,-5.663 10.044,-6.625 -1.814,4.295 -3.104,8.817 -4.093,13.364 -0.412,1.894 2.52,2.533 2.931,0.645 1.031,-4.739 2.367,-9.456 4.368,-13.884 0.125,-0.275 0.156,-0.539 0.132,-0.785 2.962,-0.502 5.99,-0.883 8.759,-1.729 0.145,-0.044 0.266,-0.106 0.377,-0.176 5.653,3.398 10.978,7.595 15.815,10.714 11.629,7.497 24.584,11.877 36.408,2.292 1.487,-1.205 -0.142,-3.729 -1.648,-2.508 z M 17.375,30.875 C 16.892,30.875 16.5,30.483 16.5,30 c 0,-0.483 0.392,-0.875 0.875,-0.875 0.483,0 0.875,0.392 0.875,0.875 0,0.483 -0.392,0.875 -0.875,0.875 z m 4.75,4.501 c 7.063,8.748 19.84,6.444 20.773,6.262 -18.444,3.965 -20.773,-6.262 -20.773,-6.262 z m 7.025,14.053 -0.114,0.858 C 27.533,49.7 26.019,49.204 24.493,48.845 l 2.488,-2.604 c 2.86,0.674 5.529,0.493 6.728,0.353 l -3.382,1.845 -1.264,0.312 z"
       id="path82" /><path
       d="M 12.461,29.645 9.875,32.5 13.2,32.556 c -0.068,-1.246 -0.415,-2.24 -0.739,-2.911 z"
       id="path84" /><path
       d="m 61.286,40.573 0.276,0.052 c 0.001,0 -0.097,-0.021 -0.276,-0.052 z"
       id="path86" /></g></svg>
