<?xml version="1.0" encoding="UTF-8" standalone="no"?>
<svg
   version="1.1"
   x="0px"
   y="0px"
   viewBox="0 0 100 102"
   xml:space="preserve"
   id="svg340"
   sodipodi:docname="noun-pigeon-962356.svg"
   width="100"
   height="102"
   inkscape:version="1.2.2 (b0a84865, 2022-12-01)"
   xmlns:inkscape="http://www.inkscape.org/namespaces/inkscape"
   xmlns:sodipodi="http://sodipodi.sourceforge.net/DTD/sodipodi-0.dtd"
   xmlns="http://www.w3.org/2000/svg"
   xmlns:svg="http://www.w3.org/2000/svg"><defs
     id="defs344"><clipPath
       clipPathUnits="userSpaceOnUse"
       id="clipPath348"><rect
         style="opacity:0.54;fill:#000000"
         id="rect350"
         width="100.10593"
         height="103.2839"
         x="0.529661"
         y="0.529661" /></clipPath><clipPath
       clipPathUnits="userSpaceOnUse"
       id="clipPath352"><rect
         style="opacity:0.54;fill:#000000"
         id="rect354"
         width="100.10593"
         height="103.2839"
         x="0.529661"
         y="0.529661" /></clipPath><clipPath
       clipPathUnits="userSpaceOnUse"
       id="clipPath356"><rect
         style="opacity:0.54;fill:#000000"
         id="rect358"
         width="100.10593"
         height="103.2839"
         x="0.529661"
         y="0.529661" /></clipPath></defs><sodipodi:namedview
     id="namedview342"
     pagecolor="#ffffff"
     bordercolor="#000000"
     borderopacity="0.25"
     inkscape:showpageshadow="2"
     inkscape:pageopacity="0.0"
     inkscape:pagecheckerboard="0"
     inkscape:deskcolor="#d1d1d1"
     showgrid="false"
     inkscape:zoom="1.888"
     inkscape:cx="61.175847"
     inkscape:cy="73.358051"
     inkscape:window-width="1309"
     inkscape:window-height="763"
     inkscape:window-x="2014"
     inkscape:window-y="275"
     inkscape:window-maximized="0"
     inkscape:current-layer="svg340" /><g
     id="g334"
     clip-path="url(#clipPath356)"><path
       d="m 6.9,13.7 c 0,0 -3.7,1.5 -4.5,3.8 0,0 -0.6,1.2 0.8,0.8 1.4,-0.4 2.4,-1.4 4.7,-1.2 0,0 1.7,-2.1 1.7,-2.5 C 9.5,14.1 8.4,13.8 6.9,13.7 Z"
       id="path320" /><circle
       cx="16.799999"
       cy="10.8"
       r="0.80000001"
       id="circle322" /><path
       d="M 97.2,90.4 C 94.9,85.5 92,84.2 92,84.2 c 0,0 -5.5,1 -15.6,-3.2 0,0 14.3,10.7 15.6,11 1.4,0.3 7.5,3.2 5.2,-1.6 z"
       id="path324" /><path
       d="m 42.3,92.3 c -1.1,-0.8 -0.5,-1.3 -2.6,-1.5 -1,-0.1 -1.8,-0.1 -2.4,-0.1 2,-2.3 5.1,-5.5 5.1,-5.5 v 0 c 0,0 7.1,-5.2 6.8,-10.4 l 4.5,-2.6 c 0,0 -24.3,-7.8 -25.6,-26 0,0 2.3,7.5 11,14.7 2.3,0.6 7,1.6 9.1,0.5 0,0 2.8,0.4 6.9,-3.7 0,0 4.5,-2.8 5,-4.5 0.4,-1.7 0.4,-2.8 0.4,-2.8 0,0 3.2,-0.6 3.7,-1.5 0.2,-0.5 0.7,-1.5 1.1,-2.4 C 58.9,38.9 50.8,31.2 46,28.7 c -8.4,-4.2 -13,3.6 -14.6,5.2 -0.7,0.7 -1.6,1.8 -2.4,2.8 -1.2,1.5 -3,2.3 -4.8,2.1 l -0.9,-0.1 c 0,0 3.2,-0.6 5.2,-4.2 2,-3.6 7.1,-7.8 7.1,-7.8 3,-1.7 6.9,-1.1 6.9,-1.1 0,0 -7.1,-4.4 -9.3,-9.4 C 31.1,11.3 27,1.4 19.4,2 c -7.6,0.6 -9.9,8 -9.9,8 -1.1,1.5 -1.7,2.8 -1.7,2.8 0,0 2.8,-0.4 3.5,1.3 0.2,0.6 -1.9,2.8 -1.9,2.8 3.7,-0.6 6.3,2.8 6.3,2.8 0,0 2.2,1 4.6,11.3 0,0 0.8,7.2 0,12 -1.1,6 3.3,17.4 10.7,22.2 8.3,5.4 7.4,5.7 7.4,5.7 0,0 2.8,5.2 1.9,8.4 -1,3.6 -1,3.6 -1,3.6 0,0 -6,7.3 -6.5,7.6 -0.5,0.3 -4.5,1.5 -5.4,1.5 -0.8,0 -3.6,-0.4 -4.4,0 -1.3,0.7 -1.6,2.3 -1.6,2.3 l 1.7,-1.1 c 0,0 3.2,1.2 5.3,1.1 0,0 2.1,-1.8 3.7,-1.8 0,0 -2.6,1.6 -3.1,2.9 -0.5,1.3 0.5,2.6 0.5,2.6 0,0 0.2,-1.6 1,-1.9 0.7,-0.3 3.5,-1.4 4.7,-2.4 3.5,0 3.1,0 3.9,0 0.5,0 2.6,-0.8 3.2,0.3 0.6,1.1 0.6,1 0.6,1 0,0 0.5,-1.9 -0.6,-2.7 z M 16.8,12.7 c -1,0 -1.9,-0.8 -1.9,-1.9 0,-1.1 0.8,-1.9 1.9,-1.9 1,0 1.9,0.8 1.9,1.9 0,1.1 -0.8,1.9 -1.9,1.9 z"
       id="path326" /><path
       d="M 54.1,87.6 C 51.7,87.4 50.5,86.1 49.2,86 47.9,85.8 50,84.4 50,84.4 c 0,0 2.1,-1.9 3.2,-4.7 1.1,-2.8 0.2,-5.4 0.2,-5.4 l -2.8,1.5 c 0,0 1,2.3 -1.1,5.5 0,0 -2.3,3.1 -4.1,3.7 L 45,85.8 c -0.8,1.1 -2,1.7 -3.4,1.7 l -1.8,2.1 c 0,0 5,1 7.3,-0.6 0,0 2.1,-0.3 2.8,0 0.6,0.3 0.6,1.3 3.1,1.5 2.4,0.2 2.4,-1.3 4.1,-0.6 -0.1,-0.2 -0.6,-2.1 -3,-2.3 z"
       id="path328" /><path
       d="m 65.8,66.4 c 0,0 10.7,2.3 8.8,-5.5 -0.7,-2.8 -3.6,-7.3 -7.3,-12 -0.8,1.2 -2.4,3 -5,2.8 0,0 1.5,3.7 -6.1,8 0,0 -2.9,3.6 -7.5,4 0,0 -2.4,0.6 -5.1,0.4 4.5,2.8 10.1,5.4 17.3,7.1 0,0 4.6,-0.6 4.9,-4.8 z"
       id="path330" /><path
       d="m 87.3,81.4 -17,-10.8 c 4.9,2.3 17.5,9.3 21.2,11.4 4.7,0.5 8.6,0.3 3.2,-3.9 C 89.4,74 76.9,61.6 76.9,61.6 c 0.6,9.1 -9.1,7.1 -9.1,7.1 0,2.3 -4.2,3.9 -4.2,3.9 0,0 16.5,8.1 20.4,8.4 0.7,0 1.9,0.2 3.3,0.4 z"
       id="path332" /></g><text
     x="0"
     y="115"
     fill="#000000"
     font-size="5px"
     font-weight="bold"
     font-family="'Helvetica Neue', Helvetica, Arial-Unicode, Arial, Sans-serif"
     id="text336"
     clip-path="url(#clipPath352)">Created by parkjisun</text><text
     x="0"
     y="120"
     fill="#000000"
     font-size="5px"
     font-weight="bold"
     font-family="'Helvetica Neue', Helvetica, Arial-Unicode, Arial, Sans-serif"
     id="text338"
     clip-path="url(#clipPath348)">from the Noun Project</text></svg>
