<?xml version="1.0" encoding="UTF-8" standalone="no"?>
<svg
   version="1.1"
   x="0px"
   y="0px"
   viewBox="0 0 100 102"
   xml:space="preserve"
   id="svg22"
   sodipodi:docname="noun-finch-no-branch-flipped-962354.svg"
   width="100"
   height="102"
   inkscape:export-filename="inkscape work/noun-finch-no-branch-flipped-962354.svg"
   inkscape:export-xdpi="96"
   inkscape:export-ydpi="96"
   inkscape:version="1.2.2 (b0a84865, 2022-12-01)"
   xmlns:inkscape="http://www.inkscape.org/namespaces/inkscape"
   xmlns:sodipodi="http://sodipodi.sourceforge.net/DTD/sodipodi-0.dtd"
   xmlns="http://www.w3.org/2000/svg"
   xmlns:svg="http://www.w3.org/2000/svg"><defs
     id="defs26"><clipPath
       clipPathUnits="userSpaceOnUse"
       id="clipPath186"><rect
         style="opacity:0.54;fill:#000000"
         id="rect188"
         width="99.576271"
         height="107.52119"
         x="0"
         y="0" /></clipPath></defs><sodipodi:namedview
     id="namedview24"
     pagecolor="#ffffff"
     bordercolor="#000000"
     borderopacity="0.25"
     inkscape:showpageshadow="2"
     inkscape:pageopacity="0.0"
     inkscape:pagecheckerboard="0"
     inkscape:deskcolor="#d1d1d1"
     showgrid="false"
     inkscape:zoom="1.888"
     inkscape:cx="49.788136"
     inkscape:cy="68.326271"
     inkscape:window-width="1309"
     inkscape:window-height="770"
     inkscape:window-x="2033"
     inkscape:window-y="346"
     inkscape:window-maximized="0"
     inkscape:current-layer="svg22" /><g
     id="g16"
     clip-path="url(#clipPath186)"
     transform="matrix(-1,0,0,1,99.993019,0)"><path
       d="m 85.6,76.5 c 0,0 -17,-12.3 -24.8,-18.1 C 53,52.6 40.2,40.3 39.5,34.5 c 0,0 11.9,15.9 21.9,21.9 10,6 22.2,15.6 22.2,15.6 0,0 4.9,4.7 6.3,3.6 C 91.2,74.5 72,57.3 72,57.3 c 0,0 7.6,5.4 8.5,5.6 0.9,0.2 0.2,-1.6 -1.3,-3.1 -1.5,-1.5 -6,-9.6 -6,-9.6 C 68.6,34.4 51.1,19.9 48,18.3 44.9,16.7 45.5,13.4 41.7,9.1 37.9,4.9 32.1,4 30.3,4 c -1.8,0 -4,0.9 -4,0.9 L 27,2.7 c -1.6,0.2 -5.1,3.1 -5.1,3.1 l 2,-3.8 -3.6,2 c -6.9,4 -8.7,11 -8.7,11 0,0 1.3,-0.3 3.9,4.1 0.4,0.7 0.9,3.3 0.7,5 -0.1,1.2 -1,2.2 -2.2,2.3 0,0 1.3,4.5 3.6,6.9 2.2,2.5 3.4,11.6 7.6,19.2 4.3,7.6 13.9,19.2 24.2,20.4 10.3,1.1 9.2,-1.1 13.9,0.4 C 68,74.9 76.7,80 76.7,80 L 93,97 91.7,93.2 c 0,0 2.2,4 5.1,4.7 C 99.7,98.7 85.6,76.5 85.6,76.5 Z M 21.8,16.8 C 19.6,17 19.1,15 19.1,15 c 0,0 0,-1.6 1.6,-2.2 1.6,-0.7 4.3,0.7 4.3,0.7 0,0 -0.9,3 -3.2,3.3 z"
       id="path2" /><path
       d="m 13.8,20.5 c -0.5,-1.6 -1.6,-2.8 -3.6,-4.6 0,0 -5.1,3.4 -7.4,5.6 0,0 5.2,-1 7.4,-1 1.5,0 2.9,0 3.6,0 z"
       id="path4" /><path
       d="m 14.2,22.4 c 0,-0.2 -0.1,-0.5 -0.1,-0.7 -1.4,0.1 -5.7,0.3 -8.8,0.6 2.2,0.7 5.3,1.6 6.2,1.6 l 2.7,0.4 c 0,0.1 0.1,-1.4 0,-1.9 z"
       id="path6" /><path
       d="m 53,74.7 c 0,0 -0.7,0.8 -3.2,0 l -7.4,10.2 c 0,0 -4.9,-0.8 -7.4,2.2 -2.5,3 -1.8,4 -1,3.5 0.8,-0.5 3,-5 7.4,-3.4 L 36.9,94 c 0,0 -1.3,2 -0.5,2.3 0.8,0.3 7.4,-7.7 7.4,-7.7 0,0 -0.5,2.2 -1,2.9 -0.5,0.7 -1,3 -0.2,3.7 0.8,0.7 0.7,-2 1.5,-2.9 0.8,-0.8 2.4,-3.1 2.3,-5 0.7,0.5 1.4,1.1 1.5,1.1 0.3,0 2.6,-0.4 2.6,-0.4 0,-0.6 2.1,0.8 2.1,1.6 0,0.8 0.4,-1.8 -1.1,-2.7 -1.4,-0.8 -3.9,-0.7 -5.5,-2 0.1,-1.1 0.6,-2.2 2.1,-3.9 2.4,-2.8 4.9,-6.3 4.9,-6.3 z"
       id="path8" /><polygon
       points="39.9,82.9 41.6,83.2 48.1,74.3 46.1,73.8 "
       id="polygon10" /><path
       d="M 35.2,84.2 C 28.3,83 27.8,85.4 27.8,85.4 27,85.6 26.6,87.1 26.5,87.9 27,87 29,86.2 29,86.2 h 4.5 z"
       id="path12" /><path
       d="m 26.5,88.4 c 0,0 0,-0.2 0.1,-0.5 -0.1,0.2 -0.2,0.3 -0.1,0.5 z"
       id="path14" /></g></svg>
