<?xml version="1.0" encoding="UTF-8" standalone="no"?>
<svg
   version="1.1"
   x="0px"
   y="0px"
   viewBox="0 0 100 102"
   xml:space="preserve"
   id="svg579"
   sodipodi:docname="noun-raven-962374.svg"
   width="100"
   height="102"
   inkscape:version="1.2.2 (b0a84865, 2022-12-01)"
   xmlns:inkscape="http://www.inkscape.org/namespaces/inkscape"
   xmlns:sodipodi="http://sodipodi.sourceforge.net/DTD/sodipodi-0.dtd"
   xmlns="http://www.w3.org/2000/svg"
   xmlns:svg="http://www.w3.org/2000/svg"><defs
     id="defs583"><clipPath
       clipPathUnits="userSpaceOnUse"
       id="clipPath587"><rect
         style="opacity:0.54;fill:#000000"
         id="rect589"
         width="100.63559"
         height="106.46186"
         x="1.7174223e-08"
         y="3.4348446e-08" /></clipPath><clipPath
       clipPathUnits="userSpaceOnUse"
       id="clipPath591"><rect
         style="opacity:0.54;fill:#000000"
         id="rect593"
         width="100.63559"
         height="106.46186"
         x="1.7174223e-08"
         y="3.4348446e-08" /></clipPath><clipPath
       clipPathUnits="userSpaceOnUse"
       id="clipPath595"><rect
         style="opacity:0.54;fill:#000000"
         id="rect597"
         width="100.63559"
         height="106.46186"
         x="1.7174223e-08"
         y="3.4348446e-08" /></clipPath></defs><sodipodi:namedview
     id="namedview581"
     pagecolor="#ffffff"
     bordercolor="#000000"
     borderopacity="0.25"
     inkscape:showpageshadow="2"
     inkscape:pageopacity="0.0"
     inkscape:pagecheckerboard="0"
     inkscape:deskcolor="#d1d1d1"
     showgrid="false"
     inkscape:zoom="1.888"
     inkscape:cx="56.938559"
     inkscape:cy="65.942797"
     inkscape:window-width="1309"
     inkscape:window-height="639"
     inkscape:window-x="1821"
     inkscape:window-y="220"
     inkscape:window-maximized="0"
     inkscape:current-layer="svg579" /><g
     id="g573"
     clip-path="url(#clipPath595)"><path
       d="m 13.1,16.6 c 0,0 1.5,-1.6 -1.2,-3.6 0,0 -5.3,2.2 -6.7,3.6 C 3.8,18 2,21.2 2,21.9 c 0,0 5.8,-3.4 8.4,-4.4 2.7,-0.9 2.7,-0.9 2.7,-0.9 z"
       id="path559" /><path
       d="m 17.2,18.8 -3,-1.3 c -2.4,0 -9.6,3.8 -9.6,3.8 L 3.3,22.2 C 6.7,23.1 12.1,21 12.1,21 l 4.4,-0.4 z"
       id="path561" /><path
       d="M 49.8,62.7 C 44.5,60.8 34.7,52.5 34.7,52.5 L 30.8,52 C 22.7,48.1 22,41.6 21.5,40.6 21,39.5 20.4,35.7 22.9,33.4 25.4,31.1 30.6,33 30.6,33 c 0,0 -3.3,-0.5 -6.7,1.8 -3.3,2.3 1.6,14.1 6.7,15.5 5.1,1.4 3,-0.7 3.9,-4.4 0.9,-3.7 4.6,-1.6 11.1,-2.6 6.5,-1.1 4.6,-7.7 4.6,-7.7 2.8,3.9 -0.4,8.8 -3.3,9.2 -3,0.4 -10.6,0.7 -10.9,1.4 -0.4,0.7 -0.2,4.6 -0.2,4.6 l 3.5,3.3 c 2.1,2.3 12.5,8.6 16.7,9 4.2,0.4 2.5,-2.5 2.5,-2.5 -4,-2.8 -9.9,-10.2 -9.9,-10.2 14.8,14.6 20.2,13 19,8.4 -0.7,-2.5 -12.7,-16.7 -12.7,-16.7 4,2.8 13.4,13.9 13.4,13.9 1.9,-0.7 -3,-7.7 -3,-7.7 0,0 -19.2,-23.8 -20.6,-24.5 -1.4,-0.7 -4.4,-1.1 -4.4,-1.1 l -5.1,-5.3 c 0,0 0,0 -1.9,-1.9 -1.9,-1.9 -3.2,-2.1 -3.2,-2.1 l 2.8,-0.2 C 28.5,10.4 24.3,7.9 20.4,7.9 c -3.9,0 -7.4,4.6 -7.4,4.6 1.6,0.2 1.9,3.9 1.9,3.9 l 3.1,1.7 c 0.3,0.2 0.5,0.6 0.4,1 l -0.7,2.1 c -0.1,0.3 -0.4,0.5 -0.7,0.6 L 13.5,22 c 0,0 2.6,3.2 1.2,7.6 -1.4,4.4 6,15.5 6,15.5 l 15.3,24.3 -0.4,-2.5 4.8,3.2 v -3.2 l 2.3,2 c 0.5,0.8 0.8,1.5 0.8,1.9 -0.1,0.8 -4.5,9.5 -4.5,9.5 0,0 -5,2.1 -6.3,1.8 -1.3,-0.3 -3.3,0.3 -3.4,1.5 -0.1,1.2 -0.1,1.2 -0.1,1.2 0,0 1.7,-1.3 2.6,-1.3 0.9,0 -0.5,1.2 2.9,0.5 3.4,-0.7 7.4,-1.7 7.4,-1.7 0,0 3.6,0.9 5.4,1.2 1.8,0.3 2.2,1.8 2.2,1.8 0,0 0.7,-2.8 -1.6,-3.4 -2.2,-0.7 -4.6,-1.8 -4.6,-1.8 0,0 -0.9,-0.3 -0.5,-2.1 0.4,-1.8 4.5,-6.9 3.8,-7.8 -0.3,-0.4 -0.7,-1.2 -1.1,-1.9 1,0.7 1.9,1.2 1.9,1.2 l -1.9,-3.7 c 0,0 2.1,0.7 5.5,2.1 3.3,1.4 12.3,0.7 12.3,0.7 l -4.8,-3.5 c 0.1,-0.3 -3.6,-0.5 -8.9,-2.4 z M 19.6,15.8 c -0.8,0 -1.5,-0.7 -1.5,-1.5 0,-0.8 0.7,-1.5 1.5,-1.5 0.8,0 1.5,0.7 1.5,1.5 -0.1,0.9 -0.7,1.5 -1.5,1.5 z"
       id="path563" /><path
       d="m 68.4,62.5 c -2.4,2.6 -7.1,0.1 -7.1,0.1 L 60.9,64 c 2.9,2.9 34.9,25 35.5,24.1 0.7,-0.9 -2,-4 -2,-4 -3.6,-3.4 -17.9,-15.5 -19.1,-17.4 -1.2,-1.8 -5.9,-7.4 -5.9,-7.4 0.2,1.9 -1,3.2 -1,3.2 z"
       id="path565" /><path
       d="M 93.2,88.1 C 91.9,87.3 64.4,69 64.4,69 c 0,0 18.7,17.1 21.2,19.2 2.5,2.1 4.6,2.4 4.6,2.4 l -3.4,-5.3 c 0,0 4.6,5.3 6.5,6.1 1.8,0.8 4.8,0.7 4.8,0.7 0,0 -3.5,-3.2 -4.9,-4 z"
       id="path567" /><path
       d="m 48.1,67.6 0.7,2.8 -3.8,6.5 -0.5,1.1 c 0,0 6.2,-6.1 6.9,-7 C 52.1,70.1 51,69 51,69 Z"
       id="path569" /><path
       d="m 33.4,80.7 4.4,-1.3 1.1,-2 c -1.5,1.6 -6.5,1.2 -7.7,1.2 -1.2,0 -3.6,0.8 -3.6,0.8 -3,0.1 -2.5,2.4 -2.5,2.4 0,-0.9 2,-1.1 2,-1.1 l 0.4,1.1 c 0,0 1.2,0.4 2.1,-0.4 0.9,-0.8 3.8,-0.7 3.8,-0.7 z"
       id="path571" /></g><text
     x="0"
     y="115"
     fill="#000000"
     font-size="5px"
     font-weight="bold"
     font-family="'Helvetica Neue', Helvetica, Arial-Unicode, Arial, Sans-serif"
     id="text575"
     clip-path="url(#clipPath591)">Created by parkjisun</text><text
     x="0"
     y="120"
     fill="#000000"
     font-size="5px"
     font-weight="bold"
     font-family="'Helvetica Neue', Helvetica, Arial-Unicode, Arial, Sans-serif"
     id="text577"
     clip-path="url(#clipPath587)">from the Noun Project</text></svg>
